<?xml version="1.0"?>
<svg xmlns="http://www.w3.org/2000/svg" id="Layer_1" enable-background="new 0 0 512 512" height="512px" viewBox="0 0 512 512" width="512px"><g><g><g><path d="m42.786 209.4h12.501v110.044c0 32.818 26.7 59.518 59.519 59.518 15.704 0 30.521-6.063 41.721-17.07 10.358-10.181 16.529-23.53 17.614-37.898 6.828 7.743 10.566 17.576 10.565 27.988v1.579c0 14.572-.003 39.602-.007 64.525 0 4.142 3.357 7.5 7.499 7.501h.001c4.142 0 7.5-3.357 7.5-7.499.004-24.924.007-49.955.007-64.527v-1.578c.001-15.326-5.967-29.737-16.806-40.579-2.578-2.578-5.363-4.872-8.309-6.884l.71-41.118 23.049-.042c4.137-.008 7.486-3.363 7.486-7.5v-5.819c0-25.364 20.636-46 46-46 15.683 0 29.896 9.275 36.21 23.63 1.198 2.723 3.891 4.48 6.865 4.48h26.732c5.819 0 11.368 2.186 15.624 6.153l15.588 14.531c7.045 6.568 16.223 10.183 25.852 10.183h.118c6.111 0 11.857 2.377 16.184 6.695 4.338 4.329 6.727 10.088 6.727 16.217v1.96h-9.646c-4.142 0-7.5 3.357-7.5 7.5s3.358 7.5 7.5 7.5h9.646v8.698c0 4.143 3.358 7.5 7.5 7.5s7.5-3.357 7.5-7.5v-7.884c10.191 2.73 17.718 12.042 17.718 23.082v77.456c0 4.143 3.358 7.5 7.5 7.5s7.5-3.357 7.5-7.5v-77.456c0-19.344-14.197-35.431-32.718-38.4v-2.456c0-10.141-3.953-19.67-11.13-26.834-7.16-7.146-16.667-11.078-26.779-11.078h-.119c-5.819 0-11.366-2.185-15.623-6.154l-15.588-14.531c-7.042-6.565-16.224-10.182-25.852-10.182l-22.088-.001c-9.543-17.227-27.77-28.109-47.721-28.109-33.077 0-60.09 26.466-60.978 59.333l-31.413.057c-11.436 0-20.74-9.349-20.74-20.84v-7.956c0-4.143-3.358-7.5-7.5-7.5s-7.5 3.357-7.5 7.5v7.956c0 19.762 16.033 35.84 35.754 35.84l.838-.001-.584 33.846c-5.552-1.759-11.399-2.684-17.39-2.685h-.197c-27.25 0-49.42-22.26-49.42-49.62v-43.071c0-4.143-3.358-7.5-7.5-7.5h-14.918v-16.34h16.358c3.129 0 5.93-1.942 7.025-4.874.783-2.096 2.021-4.026 3.591-5.596 3.005-3.021 7-4.646 11.255-4.553 8.375.167 15.189 7.367 15.189 16.052v8.033c0 4.143 3.358 7.5 7.5 7.5s7.5-3.357 7.5-7.5v-8.033c0-16.793-13.409-30.722-29.891-31.049-8.366-.142-16.263 3.019-22.171 8.955-1.801 1.801-3.383 3.851-4.691 6.064h-29.837c-12.743 0-23.11 10.394-23.11 23.17v9.369c0 7.611 6.182 13.802 13.78 13.802zm34.92 0v35.569c0 35.632 28.899 64.62 64.42 64.62h.196c5.994 0 11.793 1.249 17.116 3.602l-.121 7.021c-.416 24.124-20.384 43.75-44.511 43.75-24.548 0-44.519-19.971-44.519-44.518v-110.044zm-33.7-23.17c0-4.505 3.638-8.17 8.11-8.17h3.171v16.34h-11.281z" data-original="#000000" class="active-path" data-old_color="#000000" fill="#008000"/><path d="m489.5 467h-72.763v-110.23c0-.003 0-.006 0-.01v-13.079c0-4.143-3.358-7.5-7.5-7.5s-7.5 3.357-7.5 7.5v5.589h-25.32c-16.266 0-29.5 13.233-29.5 29.5v88.23h-15v-88.23c0-16.267-13.233-29.5-29.5-29.5h-58.111c-16.221 0-29.454 13.196-29.5 29.417l-.249 88.313h-14.869l.005-16.818c.001-4.142-3.356-7.501-7.498-7.502h-.002c-4.141 0-7.499 3.356-7.5 7.498l-.005 16.822h-162.188c-12.407 0-22.5 10.094-22.5 22.5s10.093 22.5 22.5 22.5h467c12.407 0 22.5-10.094 22.5-22.5s-10.093-22.5-22.5-22.5zm-87.763-102.73v102.726h-15v-102.726zm-39.821 14.5c0-6.356 4.118-11.758 9.821-13.71v101.94h-9.821zm-45 0v88.23h-26.872v-102.73h12.372c7.995 0 14.5 6.504 14.5 14.5zm-41.872-14.5v102.726h-15v-102.726zm-45.239 14.459c.022-7.974 6.527-14.46 14.5-14.46h.739v102.731h-15.487zm259.695 118.271h-467c-4.136 0-7.5-3.364-7.5-7.5s3.364-7.5 7.5-7.5h467c4.136 0 7.5 3.364 7.5 7.5s-3.364 7.5-7.5 7.5z" data-original="#000000" class="active-path" data-old_color="#000000" fill="#008000"/><path d="m431.435 128h.067c12.663 0 24.572-4.923 33.54-13.866 8.984-8.959 13.941-20.881 13.958-33.568.036-26.192-21.243-47.529-47.435-47.565h-.067c-12.663 0-24.572 4.923-33.54 13.866-8.984 8.959-13.941 20.881-13.958 33.568s4.907 24.623 13.867 33.606c8.959 8.984 20.881 13.941 33.568 13.959zm-22.885-70.513c6.137-6.119 14.284-9.487 22.949-9.487h.046c17.92.024 32.48 14.624 32.456 32.544-.012 8.682-3.404 16.839-9.55 22.969-6.137 6.119-14.284 9.487-22.948 9.487h-.046c-8.681-.012-16.838-3.403-22.968-9.551-6.13-6.146-9.5-14.313-9.488-22.993.011-8.682 3.403-16.839 9.549-22.969z" data-original="#000000" class="active-path" data-old_color="#000000" fill="#008000"/><path d="m431.58 22.449h.01c4.138 0 7.494-3.352 7.5-7.489l.01-7.449c.006-4.143-3.348-7.505-7.49-7.511h-.01c-4.138 0-7.494 3.352-7.5 7.489l-.01 7.449c-.006 4.143 3.347 7.505 7.49 7.511z" data-original="#000000" class="active-path" data-old_color="#000000" fill="#008000"/><path d="m431.41 138.551c-4.138 0-7.495 3.352-7.5 7.49l-.01 7.449c-.005 4.142 3.348 7.504 7.49 7.51h.01c4.138 0 7.495-3.352 7.5-7.49l.01-7.449c.005-4.142-3.348-7.504-7.49-7.51z" data-original="#000000" class="active-path" data-old_color="#000000" fill="#008000"/><path d="m392.302 27.428c1.388 2.411 3.911 3.76 6.507 3.76 1.269 0 2.556-.322 3.734-1.001 3.59-2.066 4.825-6.651 2.759-10.241l-3.716-6.456c-2.066-3.59-6.652-4.827-10.241-2.759-3.59 2.066-4.825 6.651-2.759 10.241z" data-original="#000000" class="active-path" data-old_color="#000000" fill="#008000"/><path d="m460.457 130.813c-3.59 2.066-4.825 6.651-2.759 10.241l3.716 6.456c1.388 2.411 3.911 3.76 6.507 3.76 1.269 0 2.556-.322 3.734-1.001 3.59-2.066 4.825-6.651 2.759-10.241l-3.716-6.456c-2.067-3.59-6.653-4.826-10.241-2.759z" data-original="#000000" class="active-path" data-old_color="#000000" fill="#008000"/><path d="m364.571 50.403 6.446 3.733c1.183.686 2.476 1.011 3.752 1.011 2.588 0 5.106-1.341 6.497-3.742 2.076-3.584.853-8.173-2.731-10.249l-6.446-3.733c-3.582-2.075-8.172-.854-10.249 2.731-2.076 3.584-.853 8.173 2.731 10.249z" data-original="#000000" class="active-path" data-old_color="#000000" fill="#008000"/><path d="m484.466 119.844 6.446 3.732c1.184.686 2.476 1.011 3.751 1.011 2.588 0 5.107-1.342 6.497-3.743 2.076-3.584.853-8.173-2.732-10.248l-6.446-3.732c-3.585-2.076-8.173-.853-10.249 2.732-2.075 3.584-.852 8.173 2.733 10.248z" data-original="#000000" class="active-path" data-old_color="#000000" fill="#008000"/><path d="m358.49 87.9 7.449.01h.01c4.137 0 7.495-3.352 7.5-7.49.005-4.142-3.348-7.504-7.49-7.51l-7.449-.01h-.01c-4.137 0-7.495 3.352-7.5 7.49-.005 4.142 3.348 7.505 7.49 7.51z" data-original="#000000" class="active-path" data-old_color="#000000" fill="#008000"/><path d="m497.051 73.09c-4.138 0-7.495 3.352-7.5 7.49-.005 4.142 3.348 7.504 7.49 7.51l7.449.01h.01c4.137 0 7.495-3.352 7.5-7.49.005-4.142-3.348-7.504-7.49-7.51l-7.449-.01z" data-original="#000000" class="active-path" data-old_color="#000000" fill="#008000"/><path d="m370.945 106.697-6.456 3.716c-3.59 2.066-4.825 6.651-2.759 10.241 1.388 2.411 3.911 3.76 6.507 3.76 1.269 0 2.556-.322 3.734-1.001l6.456-3.716c3.59-2.066 4.825-6.651 2.759-10.241-2.066-3.591-6.652-4.826-10.241-2.759z" data-original="#000000" class="active-path" data-old_color="#000000" fill="#008000"/><path d="m488.32 55.303c1.269 0 2.555-.322 3.733-1l6.457-3.715c3.59-2.065 4.826-6.651 2.761-10.241-2.066-3.591-6.651-4.825-10.241-2.761l-6.457 3.715c-3.59 2.065-4.826 6.651-2.761 10.241 1.388 2.412 3.912 3.761 6.508 3.761z" data-original="#000000" class="active-path" data-old_color="#000000" fill="#008000"/><path d="m392.157 133.465-3.733 6.446c-2.076 3.584-.853 8.173 2.731 10.249 1.184.686 2.476 1.011 3.752 1.011 2.588 0 5.106-1.341 6.497-3.742l3.733-6.446c2.076-3.584.853-8.173-2.731-10.249-3.585-2.076-8.174-.854-10.249 2.731z" data-original="#000000" class="active-path" data-old_color="#000000" fill="#008000"/><path d="m460.594 30.267c1.184.686 2.476 1.011 3.752 1.011 2.588 0 5.106-1.341 6.497-3.742l3.733-6.446c2.076-3.584.853-8.173-2.731-10.249-3.585-2.076-8.173-.854-10.249 2.731l-3.733 6.446c-2.076 3.584-.853 8.172 2.731 10.249z" data-original="#000000" class="active-path" data-old_color="#000000" fill="#008000"/></g></g></g> </svg>
