<?xml version="1.0"?>
<svg xmlns="http://www.w3.org/2000/svg" id="_x33_0" enable-background="new 0 0 64 64" height="512px" viewBox="0 0 64 64" width="512px" class=""><g><g><circle cx="42" cy="24" r="1" data-original="#000000" class="active-path" data-old_color="#000000" fill="#008000"/><circle cx="50" cy="24" r="1" data-original="#000000" class="active-path" data-old_color="#000000" fill="#008000"/><path d="m49 15.172h2v5.657h-2z" transform="matrix(.707 -.707 .707 .707 1.917 40.627)" data-original="#000000" class="active-path" data-old_color="#000000" fill="#008000"/><path d="m44 15.172h2v5.657h-2z" transform="matrix(.707 -.707 .707 .707 .452 37.092)" data-original="#000000" class="active-path" data-old_color="#000000" fill="#008000"/><path d="m51 29h-2c0 1.103-.897 2-2 2h-4v2h4c2.206 0 4-1.794 4-4z" data-original="#000000" class="active-path" data-old_color="#000000" fill="#008000"/><circle cx="14" cy="24" r="1" data-original="#000000" class="active-path" data-old_color="#000000" fill="#008000"/><circle cx="22" cy="24" r="1" data-original="#000000" class="active-path" data-old_color="#000000" fill="#008000"/><path d="m50.863 39.213-.525-2.623c2.408-.857 4.208-2.993 4.583-5.59h.079c2.206 0 4-1.794 4-4 0-.79-.238-1.523-.635-2.145.415-1.64.635-3.324.635-5.017 0-3.295-1.504-6.372-4.045-8.423.029-.134.045-.272.045-.415v-4h2v4h2v-8c0-1.103-.897-2-2-2h-22c-1.103 0-2 .897-2 2v2c0 1.103.897 2 2 2h2v4c0 .143.016.282.045.416-2.539 2.051-4.045 5.13-4.045 8.422 0 1.693.22 3.377.635 5.017-.397.622-.635 1.355-.635 2.145 0 2.206 1.794 4 4 4h.08c.374 2.597 2.174 4.733 4.582 5.59l-.525 2.623c-2.4.698-4.549 1.892-6.35 3.459-.289-1.129-.869-2.167-1.714-3.013l-1.659-1.659c-.268-.267-.414-.622-.414-1s.146-.733.414-1l.476-.475c.716-.716 1.11-1.667 1.11-2.68 0-.751-.221-1.478-.637-2.102l-1.063-1.595c-.196-.295-.3-.638-.3-.993 0-.602.142-1.204.411-1.741l.667-1.333c.604-1.207.922-2.558.922-3.907 0-2.312-.895-4.49-2.518-6.136l-3.539-3.586c.035-.145.057-.296.057-.452v-4h2c1.103 0 2-.897 2-2v-2c0-1.103-.897-2-2-2h-22c-1.103 0-2 .897-2 2v2c0 1.103.897 2 2 2h2v4c0 .156.022.307.056.453l-3.539 3.585c-1.622 1.646-2.517 3.824-2.517 6.136 0 1.35.318 2.7.922 3.907l.667 1.333c.269.538.411 1.14.411 1.741 0 .354-.104.698-.301.993l-1.063 1.594c-.415.625-.636 1.352-.636 2.103 0 1.012.395 1.964 1.11 2.679l.476.476c.268.267.414.622.414 1s-.146.733-.414 1l-1.659 1.659c-1.242 1.242-1.927 2.895-1.927 4.652 0 1.303.382 2.564 1.104 3.649l.357.535c-.942 2.112-1.461 4.442-1.461 6.874v7.631h62v-7.631c0-7.525-4.962-14.07-12.137-16.156zm5.532 5.413c-1.765 2.54-4.217 4.456-7.063 5.523 1.888-2.287 3.115-5.064 3.515-8.019 1.313.661 2.506 1.503 3.548 2.496zm-11.395 12.374v4h-8v-9h-2v9h-4v-5.631c0-3.457 1.19-6.68 3.223-9.236 2.602 3.546 6.432 5.928 10.777 6.7v2.167h-2v2zm-26-2v-2.14c4.342-.769 8.163-3.167 10.767-6.705.392.493.754 1.011 1.083 1.554-1.182 2.314-1.85 4.92-1.85 7.66v5.631h-10v-4h2v-2zm-4.374-35.905c1.096 1.169 2.649 1.905 4.374 1.905h4c.445 0 .865-.09 1.265-.224.472.669.735 1.46.735 2.295v6.929c0 2.757-2.243 5-5 5h-4c-2.757 0-5-2.243-5-5v-6.901c0-1.9 1.353-3.55 3.216-3.922zm3.374 25.233c.792 1.126 1.932 1.96 3.262 2.372-.827 1.508-1.919 2.873-3.262 3.997-1.343-1.124-2.434-2.489-3.261-3.997 1.329-.412 2.469-1.246 3.261-2.372zm6.846-2.193c1.297.657 2.494 1.495 3.545 2.495-1.765 2.538-4.216 4.451-7.059 5.518 1.887-2.285 3.114-5.059 3.514-8.013zm-1.929-.81c-.117 1.222-.378 2.418-.802 3.554-1.276-.307-2.334-1.186-2.879-2.379l2.855-1.427c.279.076.554.16.826.252zm-6.917-4.325h4c.127 0 .251-.012.376-.019l.493 2.466-2.869 1.435-2.869-1.435.493-2.466c.125.007.249.019.376.019zm.763 5.5c-.545 1.193-1.602 2.072-2.879 2.379-.426-1.139-.687-2.34-.803-3.566.269-.091.546-.167.823-.243zm-5.61-.37c.4 2.955 1.627 5.732 3.515 8.019-2.846-1.068-5.298-2.983-7.063-5.523 1.042-.993 2.235-1.835 3.548-2.496zm30.751-1.06 2.019 1.01-2.457 1.474c-.193-.731-.312-1.481-.385-2.241.27-.091.546-.167.823-.243zm8.192 0c.277.076.553.152.823.243-.072.76-.191 1.51-.385 2.241l-2.457-1.474zm-4.096 2.096.742.445-.463 1.389h-.559l-.463-1.388zm-.189 3.834h.378l.62 2.946c-.262.257-.526.513-.81.75-.283-.237-.547-.493-.809-.75zm2.634 1.01-.411-1.951.464-1.394 1.357.814c-.381.89-.852 1.737-1.41 2.531zm-4.944-3.345.464 1.394-.411 1.951c-.558-.794-1.029-1.641-1.411-2.531zm11.499-15.665v-4c1.103 0 2 .897 2 2s-.897 2-2 2zm-20-26h22v2h-22zm18 4v4h-14v-4zm-18 20c0-1.103.897-2 2-2v4c-1.103 0-2-.897-2-2zm4 3v-7.838c0-1.46.931-2.752 2.316-3.213l-.633-1.897c-2.203.734-3.683 2.787-3.683 5.11v.838c-.591 0-1.148.137-1.653.368-.227-1.162-.347-2.344-.347-3.53 0-2.724 1.266-5.27 3.394-6.942.193.062.393.104.606.104h14c.213 0 .414-.042.607-.104 2.128 1.672 3.393 4.215 3.393 6.942 0 1.186-.12 2.368-.346 3.53-.506-.231-1.063-.368-1.654-.368v-2h-2v9c0 2.757-2.243 5-5 5h-4c-2.757 0-5-2.243-5-5zm5 7h4c.127 0 .251-.012.376-.019l.493 2.466-2.869 1.435-2.869-1.435.493-2.466c.125.007.249.019.376.019zm-4.847 5.13c.4 2.955 1.627 5.732 3.515 8.019-2.846-1.068-5.298-2.983-7.063-5.523 1.042-.993 2.235-1.835 3.548-2.496zm-8.677-8.02-.476.475c-.645.645-1 1.502-1 2.415s.355 1.77 1 2.414l1.659 1.659c.864.865 1.341 2.015 1.341 3.238 0 .062-.007.123-.01.184-.35.414-.681.842-.99 1.288-2.193-3.158-5.433-5.482-9.136-6.563l-.526-2.63c2.408-.857 4.208-2.993 4.583-5.59h.079c.965 0 1.84-.357 2.531-.929.036.062.065.126.105.186l1.063 1.595c.197.295.301.638.301.993 0 .478-.187.927-.524 1.265zm-3.476-9.11c1.103 0 2 .897 2 2s-.897 2-2 2zm-20-22h22l.001 2h-22.001zm18 4v4h-14v-4zm-18.059 9.443 3.49-3.536c.182.055.37.093.569.093h14c.199 0 .387-.038.569-.092l3.49 3.536c1.252 1.267 1.941 2.948 1.941 4.73 0 1.041-.246 2.082-.711 3.012l-.17.34c-.733-.922-1.851-1.526-3.119-1.526h-.003c-.014-1.201-.381-2.346-1.049-3.318.647-.711 1.052-1.647 1.052-2.682h-2c0 1.103-.897 2-2 2v-4h-2v4h-2v-4h-2v3.444c-1.19-.694-2-1.97-2-3.444h-2c0 .822.167 1.606.467 2.32-2.573.684-4.414 2.997-4.459 5.68h-.008c-1.268 0-2.386.604-3.119 1.526l-.17-.34c-.465-.93-.711-1.972-.711-3.012 0-1.782.689-3.463 1.941-4.731zm2.059 12.557c-1.103 0-2-.897-2-2s.897-2 2-2zm-6 15.311c0-1.223.477-2.373 1.341-3.238l1.659-1.658c.645-.645 1-1.502 1-2.415s-.355-1.77-1-2.414l-.476-.477c-.337-.337-.524-.786-.524-1.264 0-.354.104-.698.301-.993l1.063-1.594c.04-.06.069-.125.105-.186.691.571 1.566.928 2.531.928h.08c.374 2.597 2.174 4.733 4.582 5.59l-.525 2.623c-4.083 1.187-7.445 3.816-9.586 7.254-.355-.663-.551-1.397-.551-2.156zm0 11.058c0-3.457 1.19-6.68 3.223-9.236 2.602 3.546 6.432 5.928 10.777 6.7v2.167h-2v2h2v4h-8v-9h-2v9h-4zm58 5.631h-4v-9h-2v9h-8v-4h2v-2h-2v-2.14c4.349-.77 8.176-3.175 10.78-6.724 2.03 2.556 3.22 5.777 3.22 9.233z" data-original="#000000" class="active-path" data-old_color="#000000" fill="#008000"/><path d="m18 33c2.757 0 5-2.243 5-5v-1h-10v1c0 2.757 2.243 5 5 5zm2.829-4c-.413 1.164-1.525 2-2.829 2s-2.416-.836-2.829-2z" data-original="#000000" class="active-path" data-old_color="#000000" fill="#008000"/><circle cx="18" cy="48" r="1" data-original="#000000" class="active-path" data-old_color="#000000" fill="#008000"/></g></g> </svg>
