<?xml version="1.0"?>
<svg xmlns="http://www.w3.org/2000/svg" id="Capa_1" enable-background="new 0 0 512 512" height="512px" viewBox="0 0 512 512" width="512px"><g><g><g><path d="m502 170.705h-25.739c31.273-36.943 23.125-97.089 22.746-99.738-.628-4.4-4.085-7.857-8.485-8.486-2.631-.377-62.004-8.425-98.992 22.156-36.988-30.581-96.363-22.531-98.993-22.156-4.4.629-7.857 4.086-8.485 8.486-.379 2.649-8.527 62.796 22.746 99.738h-19.867c-5.523 0-10 4.477-10 10 0 5.522 4.477 10 10 10h205.069v28.945h-472v-28.945h176.519c5.523 0 10-4.478 10-10 0-5.523-4.477-10-10-10h-22.618l-55.221-56.667c2.526-17.83-3.354-35.648-16.271-48.57-10.844-10.85-25.263-16.824-40.601-16.824-15.337 0-29.756 5.975-40.601 16.824-22.385 22.393-22.384 58.827 0 81.218 12.878 12.885 30.617 18.771 48.389 16.304l7.519 7.716h-67.115c-5.523 0-10 4.477-10 10v48.945c0 5.522 4.477 10 10 10h14.067v25.114c0 72.695 54.641 132.867 125.009 141.605v14.803c0 23.261 18.924 42.185 42.185 42.185h129.478c23.261 0 42.185-18.924 42.185-42.185v-14.803c70.368-8.738 125.009-68.91 125.009-141.605v-25.115h14.067c5.523 0 10-4.478 10-10v-48.945c0-5.523-4.477-10-10-10zm-176.774-9.483c-22.731-22.738-23.063-62.795-22.064-79.633 15.697-.929 51.535-.701 74.734 17.74-15.695 22.115-19.218 50.801-19.343 71.376h-21.027c-4.637-2.764-8.766-5.947-12.3-9.483zm82.279 9.483 19.901-19.908c3.905-3.905 3.903-10.237-.003-14.142-3.905-3.904-10.236-3.904-14.142.003l-34.035 34.047h-.68c.113-20.249 3.842-49.126 21.754-67.044 22.73-22.738 62.764-23.068 79.596-22.071.999 16.846.665 56.896-22.064 79.634-3.534 3.535-7.663 6.718-12.299 9.481zm-327.326-25.513c-2.465-2.531-6.084-3.573-9.517-2.739-12.805 3.105-26.006-.599-35.309-9.907-14.591-14.595-14.591-38.343-.001-52.939 7.067-7.069 16.463-10.963 26.456-10.963 9.994 0 19.389 3.894 26.456 10.963 9.305 9.309 13.007 22.516 9.903 35.33-.81 3.344.156 6.868 2.557 9.333l45.251 46.436h-40.935zm262.745 275.98c0 12.232-9.952 22.185-22.185 22.185h-129.478c-12.233 0-22.185-9.952-22.185-22.185v-13.712h173.848zm125.009-156.408c0 67.655-55.041 122.696-122.696 122.696h-178.474c-67.655 0-122.696-55.041-122.696-122.696v-25.114h423.865v25.114z" data-original="#000000" class="active-path" data-old_color="#000000" fill="#008000"/><path d="m235.99 189.02c3.476 2.319 8.148 2.197 11.504-.286 3.304-2.445 4.794-6.824 3.661-10.777-1.161-4.051-4.862-7.01-9.074-7.238-4.202-.228-8.155 2.288-9.771 6.161-1.821 4.364-.226 9.511 3.68 12.14z" data-original="#000000" class="active-path" data-old_color="#000000" fill="#008000"/></g></g></g> </svg>
