<svg height="512" viewBox="0 0 60 60" width="512" xmlns="http://www.w3.org/2000/svg"><g id="040---Koala" fill="none" fill-rule="evenodd"><g id="Layer_3" transform="translate(1)"><path id="Shape" d="m17.51 5.04c-1.2110725.57560541-2.340837 1.30860738-3.36 2.18-1.2261288-1.82459626-3.5001604-2.63431562-5.60352707-1.99525997-2.10336663.63905566-3.54260153 2.57695874-3.54647293 4.77525997.00993312 2.2523611 1.5182815 4.2226157 3.69 4.82-.4182944 1.0102151-.65199485 2.0872693-.69 3.18.00008476.2644683.02014179.5285525.06.79-3.96018218-.8748287-6.84602851-4.2903126-7.04753316-8.3409625-.20150464-4.05064982 2.33111762-7.73568221 6.1849237-8.99922758 3.85380606-1.26354538 8.07664626.2065771 10.31260946 3.59019008z" fill="#9e9e9e" fill-rule="nonzero"/><path id="Shape" d="m14.15 7.22c-2.4102272 2.0522999-4.28424805 4.6608271-5.46 7.6-2.40859014-.6642935-3.95709896-3.004608-3.62672033-5.48118672.33037863-2.47657875 2.43822106-4.32913148 4.93672033-4.33881328 1.668204-.0032225 3.226801.83053298 4.15 2.22z" fill="#607d8b" fill-rule="nonzero"/><path id="Shape" d="m35.31 14.81c-.01.01-.01.01-.02.01" stroke="#000" stroke-linecap="round" stroke-linejoin="round" stroke-width="2"/><path id="Shape" d="m29.85 7.21c-.0055228 0-.01.00447715-.01.01" stroke="#000" stroke-linecap="round" stroke-linejoin="round" stroke-width="2"/><g fill-rule="nonzero"><path id="Shape" d="m35.31 14.81c-1.1782963-2.9377763-3.0519084-5.54573449-5.46-7.6-1.021953-.86490861-2.1512861-1.59426953-3.36-2.17-2.832727-1.38672045-6.147273-1.38672045-8.98 0-1.2110725.57560541-2.340837 1.30860738-3.36 2.18-2.4102272 2.0522999-4.28424805 4.6608271-5.46 7.6-.4182944 1.0102151-.65199485 2.0872693-.69 3.18.00008476.2644683.02014179.5285525.06.79.38812927 1.9537849 1.41970056 3.7211869 2.93 5.02 3.0156591 2.7263764 6.9447414 4.2216403 11.01 4.19 1.3646519-.0021942 2.7242-.1666828 4.05-.49 3.0790744-.713247 5.8584843-2.3704046 7.95-4.74 1.0042336-1.1204218 1.6760705-2.4987264 1.94-3.98.0398582-.2614475.0599152-.5255317.06-.79-.0378916-1.095977-.2715737-2.176333-.69-3.19zm-13.31 9.19c-2.209139 0-4-1.790861-4-4 0-2.21 1.79-6 4-6s4 3.79 4 6c0 2.209139-1.790861 4-4 4z" fill="#9e9e9e"/><path id="Shape" d="m35.31 14.81c-1.1782963-2.9377763-3.0519084-5.54573449-5.46-7.6-1.021953-.86490861-2.1512861-1.59426953-3.36-2.17-1.4033497-.66871164-2.9355557-1.02361013-4.49-1.04-.5026367.00478347-1.0041434.04858173-1.5.131 1.0338992.16330585 2.0401525.46922033 2.99.909 1.2087139.57573047 2.338047 1.30509139 3.36 2.17 2.4080916 2.05426551 4.2817037 4.6622237 5.46 7.6.4184263 1.013667.6521084 2.094023.69 3.19-.0000848.2644683-.0201418.5285525-.06.79-.2639295 1.4812736-.9357664 2.8595782-1.94 3.98-2.0915157 2.3695954-4.8709256 4.026753-7.95 4.74-.8426136.2014531-1.6989355.3404968-2.562.416.5.045 1 .074 1.512.074 1.3646519-.0021942 2.7242-.1666828 4.05-.49 3.0790744-.713247 5.8584843-2.3704046 7.95-4.74 1.0042336-1.1204218 1.6760705-2.4987264 1.94-3.98.0398582-.2614475.0599152-.5255317.06-.79-.0378916-1.095977-.2715737-2.176333-.69-3.19z" fill="#707070"/><path id="Shape" d="m26 20c0 2.209139-1.790861 4-4 4s-4-1.790861-4-4c0-2.21 1.79-6 4-6s4 3.79 4 6z" fill="#607d8b"/><path id="Shape" d="m38.99 10c-.0171792 2.2444407-1.5181891 4.2063586-3.68 4.81-1.1782963-2.9377763-3.0519084-5.54573449-5.46-7.6 1.2257227-1.82537337 3.5010843-2.63434223 5.6040152-1.9924191 2.102931.64192313 3.5386237 2.58369741 3.5359848 4.7824191z" fill="#607d8b"/><path id="Shape" d="m43 10c-.0018968 4.2226976-2.93714 7.8772-7.06 8.79.0398582-.2614475.0599152-.5255317.06-.79-.0378916-1.095977-.2715737-2.176333-.69-3.19 2.4143048-.6585694 3.9681537-3.0026806 3.6344314-5.48284398-.3337223-2.48016341-2.4519183-4.3301768-4.9544314-4.32715602-1.6628531-.00245504-3.2167141.82702152-4.14 2.21-1.021953-.86490861-2.1512861-1.59426953-3.36-2.17 2.1896225-3.31545023 6.2942517-4.80278439 10.0994835-3.65960146 3.8052319 1.14318293 6.4105922 4.64635884 6.4105165 8.61960146z" fill="#9e9e9e"/><path id="Shape" d="m34 1c-.4986092.00433118-.9959928.05015604-1.487.137 3.6410356.61375594 6.5361531 3.3921175 7.2991855 7.00481986.7630324 3.61270234-.7613121 7.32449064-3.8431855 9.35818014.014.171.031.344.031.5-.0000848.2644683-.0201418.5285525-.06.79 4.4884531-.9869664 7.5123303-5.1970691 7.0141243-9.76566898-.4982059-4.56859992-4.3584414-8.02798986-8.9541243-8.02433102z" fill="#707070"/></g><path id="Shape" d="m33 55h-2" stroke="#000" stroke-linecap="round" stroke-linejoin="round" stroke-width="2"/><path id="Shape" d="m45 32c.0010769.8994488-.4029428 1.751563-1.1 2.32-.3080204 1.2881383-1.3182747 2.2911498-2.6085959 2.5898941-1.2903212.2987444-2.6385958-.1582038-3.4814041-1.1798941-.3411206-.447813-.8672262-.7163844-1.43-.73h-12.7c3.1080291 1.5422901 5.1392255 4.6445506 5.31 8.11.0979532 2.2753316-.6301431 4.5093442-2.05 6.29-.2272632.3030176-.2638192.7084296-.0944272 1.0472136s.5156551.5527864.8944272.5527864h5.15c.3916195-.0018314.7759996.105518 1.11.31.7711066.452032 1.1439929 1.3644519.9101948 2.2271666-.233798.8627148-1.0163617 1.4620046-1.9101948 1.4628334 1.1045695 0 2 .8954305 2 2s-.8954305 2-2 2h-16c-9.39 0-17-3.53-17-13.74 0-7.92 4.57-17.53 10.99-21.45 3.0156591 2.7263764 6.9447414 4.2216403 11.01 4.19 1.3646519-.0021942 2.7242-.1666828 4.05-.49l7.95.99 2.25.28c.5929485.0875566 1.1910711-.1217864 1.6-.56.8546219-.9965507 2.1957369-1.4299377 3.4719207-1.1219661 1.2761839.3079717 2.2720306 1.3053197 2.5780793 2.5819661.6970572.568437 1.1010769 1.4205512 1.1 2.32z" fill="#7f8e94" fill-rule="nonzero"/><path id="Shape" d="m25.99 43.11c.0979532 2.2753316-.6301431 4.5093442-2.05 6.29-.2272632.3030176-.2638192.7084296-.0944272 1.0472136s.5156551.5527864.8944272.5527864h3c-.3787721 0-.7250352-.2140024-.8944272-.5527864s-.132836-.744196.0944272-1.0472136c1.4198569-1.7806558 2.1479532-4.0146684 2.05-6.29-.1707745-3.4654494-2.2019709-6.5677099-5.31-8.11h-3c3.1080291 1.5422901 5.1392255 4.6445506 5.31 8.11z" fill="#545c60" fill-rule="nonzero"/><path id="Shape" d="m33 55c.9013891.0129928 1.6969476-.5866241 1.9327464-1.4567218.2357989-.8700977-.1481389-1.7893613-.9327464-2.2332782-.3340004-.204482-.7183805-.3118314-1.11-.31l-3-.000023c.3916195-.0018084.7759996.105541 1.11.310023.7711066.452032 1.1439929 1.3644519.9101948 2.2271666-.233798.8627148-1.0163617 1.4620046-1.9101948 1.4628334 1.1045695 0 2 .8954305 2 2s-.8954305 2-2 2h3c1.1045695 0 2-.8954305 2-2s-.8954305-2-2-2z" fill="#545c60" fill-rule="nonzero"/><path id="Shape" d="m43.9 29.68c-.2455504-1.0272118-.9428113-1.8881019-1.8966034-2.3416873-.953792-.4535855-2.0616271-.451127-3.0133966.0066873.9566331.4499369 1.6586445 1.3081551 1.91 2.335.6950448.5698166 1.0980011 1.4212352 1.0980011 2.32s-.4029563 1.7501834-1.0980011 2.32c-.2506113 1.0266664-.9524364 1.8847385-1.909 2.334.4704211.2277969.9863267.3460893 1.509.346 1.6161633-.0011948 3.0213564-1.1088175 3.4-2.68.6950448-.5698166 1.0980011-1.4212352 1.0980011-2.32s-.4029563-1.7501834-1.0980011-2.32z" fill="#545c60" fill-rule="nonzero"/><path id="Shape" d="m58 12v45c-.0032948 1.1032019-.8967981 1.9967052-2 2h-23c1.1045695 0 2-.8954305 2-2s-.8954305-2-2-2c.9013891.0129928 1.6969476-.5866241 1.9327464-1.4567218.2357989-.8700977-.1481389-1.7893613-.9327464-2.2332782v-16.31h2.38c.5627738.0136156 1.0888794.282187 1.43.73.8428083 1.0216903 2.1910829 1.4786385 3.4814041 1.1798941 1.2903212-.2987443 2.3005755-1.3017558 2.6085959-2.5898941.6950448-.5698166 1.0980011-1.4212352 1.0980011-2.32s-.4029563-1.7501834-1.0980011-2.32c-.3060487-1.2766464-1.3018954-2.2739944-2.5780793-2.5819661-1.2761838-.3079716-2.6172988.1254154-3.4719207 1.1219661-.4089289.4382136-1.0070515.6475566-1.6.56l-2.25-.28v-5.73c1.0042336-1.1204218 1.6760705-2.4987264 1.94-3.98 4.12286-.9128 7.0581032-4.5673024 7.06-8.79h13c1.1032019.0032948 1.9967052.8967981 2 2z" fill="#91562d" fill-rule="nonzero"/><path id="Shape" d="m56 10h-3c1.1032019.0032948 1.9967052.8967981 2 2v45c-.0032948 1.1032019-.8967981 1.9967052-2 2h3c1.1032019-.0032948 1.9967052-.8967981 2-2v-45c-.0032948-1.1032019-.8967981-1.9967052-2-2z" fill="#6d4122" fill-rule="nonzero"/></g><g id="Layer_2" fill="#000" fill-rule="nonzero" transform="translate(0 -1)"><path id="Shape" d="m23 26c2.7600532-.0033061 4.9966939-2.2399468 5-5 0-2.4-1.947-7-5-7s-5 4.6-5 7c.0033061 2.7600532 2.2399468 4.9966939 5 5zm0-10c1.391 0 3 3.026 3 5 0 1.6568542-1.3431458 3-3 3s-3-1.3431458-3-3c0-1.975 1.609-5 3-5z"/><path id="Shape" d="m29 17c.5522847 0 1-.4477153 1-1v-2c0-.5522847-.4477153-1-1-1s-1 .4477153-1 1v2c0 .5522847.4477153 1 1 1z"/><path id="Shape" d="m17 17c.5522847 0 1-.4477153 1-1v-2c0-.5522847-.4477153-1-1-1s-1 .4477153-1 1v2c0 .5522847.4477153 1 1 1z"/><path id="Shape" d="m57 10h-12.051c-.4017077-4.05431014-3.2263413-7.45793475-7.1371305-8.60009372-3.9107893-1.14215897-8.1232709.20625285-10.6438695 3.40709372-2.674239-1.07734777-5.661761-1.07734777-8.336 0-2.6346362-3.34429833-7.0997094-4.65069707-11.12149033-3.25394464-4.02178094 1.39675243-6.71592677 5.18952642-6.71050967 9.44694464.02337521 4.4436692 2.95892945 8.3458183 7.222 9.6.41504828 1.5044561 1.18101189 2.8890168 2.235 4.04-5.938 4.29-10.457 13.497-10.457 21.62 0 9.505 6.393 14.74 18 14.74h39c1.6568542 0 3-1.3431458 3-3v-45c0-1.6568542-1.3431458-3-3-3zm-22-7c3.8321747.00342101 7.1236788 2.72392113 7.8484701 6.48693215.7247913 3.76301105-1.32073 7.51147245-4.8774701 8.93806785-.0676362-.6842962-.2053585-1.3598388-.411-2.016 2.1671359-1.0238856 3.5154541-3.2408773 3.4277376-5.6361071-.0877165-2.39522975-1.5945839-4.50766072-3.8308065-5.37028949s-4.7713694-.30941545-6.4449311 1.40639659c-.5389383-.40780125-1.1030579-.78120898-1.689-1.118 1.5140382-1.71290397 3.6908793-2.69297412 5.977-2.691zm-3.848 25.013c1.013995-.5266709 1.9687574-1.1602737 2.848-1.89v2.244zm1.088-19.913c1.1277898-1.07995504 2.7819072-1.40279256 4.2330153-.82616637 1.4511082.57662619 2.4325003 1.94673492 2.5114589 3.50621507.0789587 1.5594801-.7590284 3.0217065-2.1444742 3.7419513-1.1122454-2.4129846-2.6733221-4.59238342-4.6-6.422zm3.087 7.939v.038c.0234293.0701032.0549769.1372259.094.2.3492236.8672907.5451358 1.7886534.579 2.723 0 4.077-5.8 9-13 9s-13-4.923-13-9c0-4.281 6.018-13 13-13 5.6 0 10.577 5.612 12.327 10.042zm-26.174-1.508c-1.38652206-.7196714-2.22552161-2.182293-2.14678603-3.742476.07873558-1.56018302 1.06072167-2.93090751 2.51265213-3.50733465 1.4519305-.57642714 3.1067001-.2525142 4.2341339.82881065-1.9264826 1.82940114-3.48754 4.0084336-4.6 6.421zm-6.153-3.531c-.00194953-3.32200204 2.05056846-6.29909229 5.15608867-7.47868783 3.10552023-1.17959553 6.61691813-.31589369 8.82091133 2.16968783-.5902474.33808825-1.158091.71386712-1.7 1.125-1.6734929-1.71676301-4.2094287-2.27030852-6.44608893-1.40705595-2.2366602.86325257-3.74314075 2.97699318-3.82931918 5.37291205-.08617843 2.3959188 1.26454798 4.6124299 3.43340811 5.6341439-.20451608.6539593-.34156348 1.3271335-.409 2.009-3.02474854-1.2283558-5.00944845-4.1603886-5.026-7.425zm28 48h-13c-7.3 0-16-2.21-16-12.74 0-7.683 4.316-16.375 9.926-20.2 3.1169421 2.5680414 7.0354766 3.9622102 11.074 3.94 1.3696574-.0033271 2.7343542-.1647284 4.067-.481l10.063 1.253c.9249638.1375083 1.8568688-.2009559 2.478-.9.6121979-.7078845 1.5685035-1.0145512 2.4782042-.7947069.9097006.2198443 1.6204248.9293766 1.8417958 1.8387069.0509854.2116714.1696606.4009197.338.539.4636055.3798726.7324074.9476393.7324074 1.547s-.2688019 1.1671274-.7324074 1.547c-.1683394.1380803-.2870146.3273286-.338.539-.2193307.9195322-.9400734 1.6357904-1.8609566 1.8493776-.9208832.2135873-1.8833327-.1122756-2.4850434-.8413776-.5306645-.6766268-1.3372675-1.0790105-2.197-1.096h-12.505c-1.2928913-.6207945-2.7023068-.9615623-4.136-1-2.8268056-.0657074-5.5606372 1.0114637-7.5828613 2.9877625-2.0222242 1.9762987-3.16190226 4.6846685-3.1611387 7.5122375 0 .5522847.4477153 1 1 1s1-.4477153 1-1c-.0006338-2.2894241.9223013-4.4823032 2.5598821-6.0822384 1.6375807-1.5999352 3.8513275-2.4716305 6.1401179-2.4177616 4.4574898.1593457 8.0560698 3.6950135 8.294 8.149.0826559 2.035889-.5677312 4.0338867-1.833 5.631-.4713315.5904782-.5593742 1.4000033-.226 2.078.3316284.6982797 1.0359728 1.1429239 1.809 1.142h5.144c.5468458-.0217762 1.0239996.3678422 1.112.908.0219024.2798219-.0732754.5561885-.2628332.7631857-.1895579.2069971-.4565025.3260682-.7371668.3288143h-2c-.5522847 0-1 .4477153-1 1s.4477153 1 1 1h2c.5522847 0 1 .4477153 1 1s-.4477153 1-1 1zm3-7.99c-.038 0-.074-.01-.112-.01l-5.161.026c3.3680578-4.2154378 2.9528926-10.3065528-.956-14.026h6.229zm24 6.99c0 .5522847-.4477153 1-1 1h-9v-17c0-.5522847-.4477153-1-1-1s-1 .4477153-1 1v17h-9.184c.3865429-1.0343589.1541231-2.1983947-.6-3.005.5587034-.6126094.838253-1.4295314.772-2.256-.0672862-.7494657-.4212071-1.4440534-.988-1.939v-14.8h1.385c.2596214.020953.497433.1533542.652.363 1.0455362 1.2700757 2.7018112 1.8668651 4.3171519 1.555557s2.9312016-1.4808867 3.4298481-3.048557c.7771945-.7525655 1.2159489-1.7881561 1.2159489-2.87s-.4387544-2.1174345-1.2159489-2.87c-.4947724-1.5517662-1.7902573-2.7144888-3.386285-3.0392558-1.5960276-.3247671-3.2428747.2392363-4.304715 1.4742558-.1883514.1860963-.4552885.2692346-.716.223l-1.377-.172v-4.537c.8275515-1.0237942 1.4330482-2.2085653 1.778-3.479 3.9089161-1.1523741 6.7377746-4.5473202 7.166-8.6h7.056v5c0 .5522847.4477153 1 1 1s1-.4477153 1-1v-5h3c.5522847 0 1 .4477153 1 1z"/><path id="Shape" d="m41 21c-.5522847 0-1 .4477153-1 1v2c0 .5522847.4477153 1 1 1s1-.4477153 1-1v-2c0-.5522847-.4477153-1-1-1z"/><path id="Shape" d="m47 18c-.5522847 0-1 .4477153-1 1v6c0 .5522847.4477153 1 1 1s1-.4477153 1-1v-6c0-.5522847-.4477153-1-1-1z"/><path id="Shape" d="m53 21c-.5522847 0-1 .4477153-1 1v29c0 .5522847.4477153 1 1 1s1-.4477153 1-1v-29c0-.5522847-.4477153-1-1-1z"/><path id="Shape" d="m41 41c-.5522847 0-1 .4477153-1 1v13c0 .5522847.4477153 1 1 1s1-.4477153 1-1v-13c0-.5522847-.4477153-1-1-1z"/></g></g></svg>