<?xml version="1.0"?>
<svg xmlns="http://www.w3.org/2000/svg" height="512px" viewBox="0 0 60 60" width="512px" class=""><g><g id="040---Koala" transform="translate(0 -1)"><path id="Shape" d="m23 26c2.7600532-.0033061 4.9966939-2.2399468 5-5 0-2.4-1.947-7-5-7s-5 4.6-5 7c.0033061 2.7600532 2.2399468 4.9966939 5 5zm0-10c1.391 0 3 3.026 3 5 0 1.6568542-1.3431458 3-3 3s-3-1.3431458-3-3c0-1.975 1.609-5 3-5z" data-original="#000000" class="active-path" data-old_color="#000000" fill="#008000"/><path id="Shape" d="m29 17c.5522847 0 1-.4477153 1-1v-2c0-.5522847-.4477153-1-1-1s-1 .4477153-1 1v2c0 .5522847.4477153 1 1 1z" data-original="#000000" class="active-path" data-old_color="#000000" fill="#008000"/><path id="Shape" d="m17 17c.5522847 0 1-.4477153 1-1v-2c0-.5522847-.4477153-1-1-1s-1 .4477153-1 1v2c0 .5522847.4477153 1 1 1z" data-original="#000000" class="active-path" data-old_color="#000000" fill="#008000"/><path id="Shape" d="m57 10h-12.051c-.4017077-4.05431014-3.2263413-7.45793475-7.1371305-8.60009372-3.9107893-1.14215897-8.1232709.20625285-10.6438695 3.40709372-2.6742189-1.07745191-5.6617811-1.07745191-8.336 0-2.6346362-3.34429833-7.0997094-4.65069707-11.12149033-3.25394464-4.02178094 1.39675243-6.71592677 5.18952642-6.71050967 9.44694464.02337521 4.4436692 2.95892945 8.3458183 7.222 9.6.41504828 1.5044561 1.18101189 2.8890168 2.235 4.04-5.938 4.29-10.457 13.497-10.457 21.62 0 9.505 6.393 14.74 18 14.74h39c1.6568542 0 3-1.3431458 3-3v-45c0-1.6568542-1.3431458-3-3-3zm-22-7c3.8321747.00342101 7.1236788 2.72392113 7.8484701 6.48693215.7247913 3.76301105-1.32073 7.51147245-4.8774701 8.93806785-.0676362-.6842962-.2053585-1.3598388-.411-2.016 2.1671359-1.0238856 3.5154541-3.2408773 3.4277376-5.6361071-.0877165-2.39522975-1.5945839-4.50766072-3.8308065-5.37028949s-4.7713694-.30941545-6.4449311 1.40639659c-.5389383-.40780125-1.1030579-.78120898-1.689-1.118 1.5140382-1.71290397 3.6908793-2.69297412 5.977-2.691zm-3.848 25.013c1.013995-.5266709 1.9687574-1.1602737 2.848-1.89v2.244zm1.088-19.913c1.1277898-1.07995504 2.7819072-1.40279256 4.2330153-.82616637 1.4511082.57662619 2.4325003 1.94673492 2.5114589 3.50621507.0789587 1.5594801-.7590284 3.0217065-2.1444742 3.7419513-1.1122454-2.4129846-2.6733221-4.59238342-4.6-6.422zm3.087 7.939v.038c.0234293.0701032.0549769.1372259.094.2.3492236.8672907.5451358 1.7886534.579 2.723 0 4.077-5.8 9-13 9s-13-4.923-13-9c0-4.281 6.018-13 13-13 5.6 0 10.577 5.612 12.327 10.042zm-26.174-1.508c-1.38652206-.7196714-2.22552161-2.182293-2.14678603-3.742476.07873558-1.56018302 1.06072167-2.93090751 2.51265213-3.50733465 1.4519305-.57642714 3.1067001-.2525142 4.2341339.82881065-1.9264826 1.82940114-3.48754 4.0084336-4.6 6.421zm-6.153-3.531c-.00194953-3.32200204 2.05056846-6.29909229 5.15608867-7.47868783 3.10552023-1.17959553 6.61691813-.31589369 8.82091133 2.16968783-.5902474.33808825-1.158091.71386712-1.7 1.125-1.6734929-1.71676301-4.2094287-2.27030852-6.44608893-1.40705595-2.2366602.86325257-3.74314075 2.97699318-3.82931918 5.37291205-.08617843 2.3959188 1.26454798 4.6124299 3.43340811 5.6341439-.20451608.6539593-.34156348 1.3271335-.409 2.009-3.02474854-1.2283558-5.00944845-4.1603886-5.026-7.425zm15 48c-7.3 0-16-2.21-16-12.74 0-7.683 4.316-16.375 9.926-20.2 3.1169421 2.5680414 7.0354766 3.9622102 11.074 3.94 1.3696574-.0033271 2.7343542-.1647284 4.067-.481l10.063 1.253c.9249638.1375083 1.8568688-.2009559 2.478-.9.6121979-.7078845 1.5685035-1.0145512 2.4782042-.7947069.9097006.2198443 1.6204248.9293766 1.8417958 1.8387069.0509854.2116714.1696606.4009197.338.539.4636055.3798726.7324074.9476393.7324074 1.547s-.2688019 1.1671274-.7324074 1.547c-.1683394.1380803-.2870146.3273286-.338.539-.2193307.9195322-.9400734 1.6357904-1.8609566 1.8493776-.9208832.2135873-1.8833327-.1122756-2.4850434-.8413776-.5306645-.6766268-1.3372675-1.0790105-2.197-1.096h-12.505c-1.2928913-.6207945-2.7023068-.9615623-4.136-1-2.8268056-.0657074-5.5606372 1.0114637-7.5828613 2.9877625-2.0222242 1.9762987-3.16190226 4.6846685-3.1611387 7.5122375 0 .5522847.4477153 1 1 1s1-.4477153 1-1c-.0006338-2.2894241.9223013-4.4823032 2.5598821-6.0822384 1.6375807-1.5999352 3.8513275-2.4716305 6.1401179-2.4177616 4.4574898.1593457 8.0560698 3.6950135 8.294 8.149.0826559 2.035889-.5677312 4.0338867-1.833 5.631-.4713315.5904782-.5593742 1.4000033-.226 2.078.3316284.6982797 1.0359728 1.1429239 1.809 1.142h5.144c.5468458-.0217762 1.0239996.3678422 1.112.908.0219024.2798219-.0732754.5561885-.2628332.7631857-.1895579.2069971-.4565025.3260682-.7371668.3288143h-2c-.5522847 0-1 .4477153-1 1s.4477153 1 1 1h2c.5522847 0 1 .4477153 1 1s-.4477153 1-1 1zm16-7.99c-.038 0-.074 0-.112 0h-5.161c3.3649754-4.2105781 2.949755-10.2955545-.956-14.01h6.229zm24 6.99c0 .5522847-.4477153 1-1 1h-9v-17c0-.5522847-.4477153-1-1-1s-1 .4477153-1 1v17h-9.184c.3865429-1.0343589.1541231-2.1983947-.6-3.005.5587034-.6126094.838253-1.4295314.772-2.256-.0672862-.7494657-.4212071-1.4440534-.988-1.939v-14.8h1.385c.2596214.020953.497433.1533542.652.363 1.0455362 1.2700757 2.7018112 1.8668651 4.3171519 1.555557s2.9312016-1.4808867 3.4298481-3.048557c.7759095-.7532632 1.213766-1.7885931 1.213766-2.87s-.4378565-2.1167368-1.213766-2.87c-.4947724-1.5517662-1.7902573-2.7144888-3.386285-3.0392558-1.5960276-.3247671-3.2428747.2392363-4.304715 1.4742558-.1883514.1860963-.4552885.2692346-.716.223l-1.377-.172v-4.537c.8275515-1.0237942 1.4330482-2.2085653 1.778-3.479 3.9089161-1.1523741 6.7377746-4.5473202 7.166-8.6h7.056v5c0 .5522847.4477153 1 1 1s1-.4477153 1-1v-5h3c.5522847 0 1 .4477153 1 1z" data-original="#000000" class="active-path" data-old_color="#000000" fill="#008000"/><path id="Shape" d="m41 21c-.5522847 0-1 .4477153-1 1v2c0 .5522847.4477153 1 1 1s1-.4477153 1-1v-2c0-.5522847-.4477153-1-1-1z" data-original="#000000" class="active-path" data-old_color="#000000" fill="#008000"/><path id="Shape" d="m47 18c-.5522847 0-1 .4477153-1 1v6c0 .5522847.4477153 1 1 1s1-.4477153 1-1v-6c0-.5522847-.4477153-1-1-1z" data-original="#000000" class="active-path" data-old_color="#000000" fill="#008000"/><path id="Shape" d="m53 21c-.5522847 0-1 .4477153-1 1v29c0 .5522847.4477153 1 1 1s1-.4477153 1-1v-29c0-.5522847-.4477153-1-1-1z" data-original="#000000" class="active-path" data-old_color="#000000" fill="#008000"/><path id="Shape" d="m41 41c-.5522847 0-1 .4477153-1 1v13c0 .5522847.4477153 1 1 1s1-.4477153 1-1v-13c0-.5522847-.4477153-1-1-1z" data-original="#000000" class="active-path" data-old_color="#000000" fill="#008000"/></g></g> </svg>
