<svg height="512" viewBox="0 0 64 64" width="512" xmlns="http://www.w3.org/2000/svg"><g id="Fill_Outline" data-name="Fill Outline"><g id="Color"><g><ellipse cx="32" cy="23" fill="#f89c8d" rx="16" ry="14"/><path d="m37 31c-8.837 0-16-6.268-16-14a12.414 12.414 0 0 1 1.049-4.951 13.41 13.41 0 0 0 -6.049 10.951c0 7.732 7.163 14 16 14 6.841 0 12.663-3.764 14.951-9.049a17.394 17.394 0 0 1 -9.951 3.049z" fill="#f8664f"/><ellipse cx="32" cy="23" fill="#f8664f" rx="11" ry="14"/><path d="m37 31c-7.763 0-14.231-4.839-15.689-11.257a17.67 17.67 0 0 0 -.311 3.257c0 7.732 4.925 14 11 14 3.913 0 7.339-2.608 9.289-6.524a18.089 18.089 0 0 1 -4.289.524z" fill="#cc5144"/><ellipse cx="32" cy="23" fill="#f89c8d" rx="5" ry="14"/><path d="m27.354 28.151c.733 5.18 2.535 8.849 4.646 8.849 1.7 0 3.208-2.393 4.11-6.039a17.34 17.34 0 0 1 -8.756-2.81z" fill="#f8664f"/><path d="m25 35h14a1 1 0 0 1 1 1v3a0 0 0 0 1 0 0h-16a0 0 0 0 1 0 0v-3a1 1 0 0 1 1-1z" fill="#f9e109"/><path d="m32 50a2 2 0 0 1 2 2v2a0 0 0 0 1 0 0h-4a0 0 0 0 1 0 0v-2a2 2 0 0 1 2-2z" fill="#f9e109"/><path d="m35 61h-6l1-7h4z" fill="#f89c8d"/><rect fill="#f9e109" height="4" rx="1" width="14" x="25" y="7"/><path d="m41 45h-18l1-6h16z" fill="#f89c8d"/><path d="m27 7h-1a1 1 0 0 0 -1 1v2a1 1 0 0 0 1 1h12a1 1 0 0 0 1-1v-1h-10a2 2 0 0 1 -2-2z" fill="#fcbc04"/><path d="m39 35h-14a1 1 0 0 0 -1 1v3h2a2 2 0 0 1 2-2h12v-1a1 1 0 0 0 -1-1z" fill="#fcbc04"/><path d="m31.236 41h9.1l-.336-2h-16l-1 6h3.35a4.992 4.992 0 0 1 4.886-4z" fill="#f8664f"/><path d="m33 53a2 2 0 0 1 -2-2v-.723a1.994 1.994 0 0 0 -1 1.723v2h4v-1z" fill="#fcbc04"/><path d="m34.316 59a2.63 2.63 0 0 1 -2.6-2.251.967.967 0 0 1 .618-1l1.809-.749-.143-1h-4l-1 7h6l-.286-2z" fill="#f8664f"/></g></g><g id="Outline_copy" data-name="Outline copy"><g fill="#1f2d51"><path d="m47.311 16.5a1 1 0 1 0 -1.754.962 11.41 11.41 0 0 1 1.443 5.538 12.667 12.667 0 0 1 -6.744 10.846 16.792 16.792 0 0 0 3.744-10.846 16.814 16.814 0 0 0 -3.691-10.785 14.677 14.677 0 0 1 2.991 2.259 1 1 0 1 0 1.4-1.421 16.849 16.849 0 0 0 -4.7-3.253v-1.8a2 2 0 0 0 -2-2h-3.184a2.966 2.966 0 0 0 .184-1 3 3 0 0 0 -6 0 2.966 2.966 0 0 0 .184 1h-3.184a2 2 0 0 0 -2 2v1.789c-5.489 2.594-9 7.7-9 13.211a13.416 13.416 0 0 0 1.687 6.5 1 1 0 1 0 1.755-.959 11.447 11.447 0 0 1 -1.442-5.541 12.545 12.545 0 0 1 6.724-10.823 16.8 16.8 0 0 0 -3.724 10.823 16.794 16.794 0 0 0 3.741 10.843 14.706 14.706 0 0 1 -3.041-2.311 1 1 0 0 0 -1.409 1.419 16.712 16.712 0 0 0 3.739 2.776 1.884 1.884 0 0 0 -.03.273v2.917l-.986 5.918a1 1 0 0 0 .986 1.165h8v3.184a3 3 0 0 0 -2 2.816v1.93l-.99 6.928a1 1 0 0 0 .99 1.142h6a1 1 0 0 0 .99-1.142l-.99-6.928v-1.93a3 3 0 0 0 -2-2.816v-3.184h4a1 1 0 0 0 1-1v-2a1 1 0 0 0 -2 0v1h-3v-1a1 1 0 0 0 -2 0v1h-3v-1a1 1 0 0 0 -2 0v1h-1.819l.666-4h14.306l.861 5.165a1 1 0 0 0 .986.835.946.946 0 0 0 .166-.014 1 1 0 0 0 .821-1.151l-.987-5.918v-2.917a1.92 1.92 0 0 0 -.027-.264 14.692 14.692 0 0 0 8.027-12.736 13.4 13.4 0 0 0 -1.689-6.5zm-16.311 35.5a1 1 0 0 1 2 0v1h-2zm-.847 8 .714-5h2.266l.714 5zm7.117-26h-1.109a29.8 29.8 0 0 0 1.839-11 34.522 34.522 0 0 0 -.941-8.244 1 1 0 1 0 -1.94.488 32.474 32.474 0 0 1 .881 7.756c0 4.417-.78 8.541-2.043 11h-3.914c-1.263-2.459-2.043-6.583-2.043-11s.78-8.541 2.043-11h7.227c2.919 2.375 4.73 6.547 4.73 11s-1.811 8.625-4.73 11zm-6.27-29a1 1 0 1 1 1 1 1 1 0 0 1 -1-1zm-5 3h12v2h-12zm.73 4h1.109a29.8 29.8 0 0 0 -1.839 11 29.8 29.8 0 0 0 1.839 11h-1.109c-2.919-2.375-4.73-6.547-4.73-11s1.811-8.625 4.73-11zm-1.73 26v-2h14v2z"/><path d="m54 43h-1v-1a1 1 0 0 0 -2 0v1h-1a1 1 0 0 0 0 2h1v1a1 1 0 0 0 2 0v-1h1a1 1 0 0 0 0-2z"/><path d="m13 38h-1v-1a1 1 0 0 0 -2 0v1h-1a1 1 0 0 0 0 2h1v1a1 1 0 0 0 2 0v-1h1a1 1 0 0 0 0-2z"/><path d="m46 8h1v1a1 1 0 0 0 2 0v-1h1a1 1 0 0 0 0-2h-1v-1a1 1 0 0 0 -2 0v1h-1a1 1 0 0 0 0 2z"/><circle cx="9" cy="26" r="1"/><circle cx="43" cy="53" r="1"/></g></g></g></svg>