<?xml version="1.0"?>
<svg xmlns="http://www.w3.org/2000/svg" viewBox="0 0 64 64" width="512px" height="512px" class=""><g><g id="Outline"><g><path d="M47.311,16.5a1,1,0,1,0-1.754.962A11.41,11.41,0,0,1,47,23a12.667,12.667,0,0,1-6.744,10.846A16.792,16.792,0,0,0,44,23a16.814,16.814,0,0,0-3.691-10.785A14.677,14.677,0,0,1,43.3,14.474,1,1,0,1,0,44.7,13.053,16.849,16.849,0,0,0,40,9.8V8a2,2,0,0,0-2-2H34.816A2.966,2.966,0,0,0,35,5a3,3,0,0,0-6,0,2.966,2.966,0,0,0,.184,1H26a2,2,0,0,0-2,2V9.789c-5.489,2.594-9,7.7-9,13.211a13.416,13.416,0,0,0,1.687,6.5,1,1,0,1,0,1.755-.959A11.447,11.447,0,0,1,17,23a12.545,12.545,0,0,1,6.724-10.823A16.8,16.8,0,0,0,20,23a16.794,16.794,0,0,0,3.741,10.843A14.706,14.706,0,0,1,20.7,31.532a1,1,0,0,0-1.409,1.419,16.712,16.712,0,0,0,3.739,2.776A1.884,1.884,0,0,0,23,36v2.917l-.986,5.918A1,1,0,0,0,23,46h8v3.184A3,3,0,0,0,29,52v1.93l-.99,6.928A1,1,0,0,0,29,62h6a1,1,0,0,0,.99-1.142L35,53.93V52a3,3,0,0,0-2-2.816V46h4a1,1,0,0,0,1-1V43a1,1,0,0,0-2,0v1H33V43a1,1,0,0,0-2,0v1H28V43a1,1,0,0,0-2,0v1H24.181l.666-4H39.153l.861,5.165A1,1,0,0,0,41,46a.946.946,0,0,0,.166-.014,1,1,0,0,0,.821-1.151L41,38.917V36a1.92,1.92,0,0,0-.027-.264A14.692,14.692,0,0,0,49,23,13.4,13.4,0,0,0,47.311,16.5ZM31,52a1,1,0,0,1,2,0v1H31Zm-.847,8,.714-5h2.266l.714,5ZM37.27,34H36.161A29.8,29.8,0,0,0,38,23a34.522,34.522,0,0,0-.941-8.244,1,1,0,1,0-1.94.488A32.474,32.474,0,0,1,36,23c0,4.417-.78,8.541-2.043,11H30.043C28.78,31.541,28,27.417,28,23s.78-8.541,2.043-11H37.27C40.189,14.375,42,18.547,42,23S40.189,31.625,37.27,34ZM31,5a1,1,0,1,1,1,1A1,1,0,0,1,31,5ZM26,8H38v2H26Zm.73,4h1.109A29.8,29.8,0,0,0,26,23a29.8,29.8,0,0,0,1.839,11H26.73C23.811,31.625,22,27.453,22,23S23.811,14.375,26.73,12ZM25,38V36H39v2Z" data-original="#000000" class="active-path" data-old_color="#000000" fill="#008000"/><path d="M54,43H53V42a1,1,0,0,0-2,0v1H50a1,1,0,0,0,0,2h1v1a1,1,0,0,0,2,0V45h1a1,1,0,0,0,0-2Z" data-original="#000000" class="active-path" data-old_color="#000000" fill="#008000"/><path d="M13,38H12V37a1,1,0,0,0-2,0v1H9a1,1,0,0,0,0,2h1v1a1,1,0,0,0,2,0V40h1a1,1,0,0,0,0-2Z" data-original="#000000" class="active-path" data-old_color="#000000" fill="#008000"/><path d="M46,8h1V9a1,1,0,0,0,2,0V8h1a1,1,0,0,0,0-2H49V5a1,1,0,0,0-2,0V6H46a1,1,0,0,0,0,2Z" data-original="#000000" class="active-path" data-old_color="#000000" fill="#008000"/><circle cx="9" cy="26" r="1" data-original="#000000" class="active-path" data-old_color="#000000" fill="#008000"/><circle cx="43" cy="53" r="1" data-original="#000000" class="active-path" data-old_color="#000000" fill="#008000"/></g></g></g> </svg>
