<?xml version="1.0" encoding="iso-8859-1"?>
<!-- Generator: Adobe Illustrator 19.0.0, SVG Export Plug-In . SVG Version: 6.00 Build 0)  -->
<svg version="1.1" id="Capa_1" xmlns="http://www.w3.org/2000/svg" xmlns:xlink="http://www.w3.org/1999/xlink" x="0px" y="0px"
	 viewBox="0 0 496 496" style="enable-background:new 0 0 496 496;" xml:space="preserve">
<path style="fill:#FFA64D;" d="M327.952,207.952c-5.248-5.248-11.504-9.376-18.392-12.128L280,184l-88,64v64h32l12.904-19.36
	c1.936-2.896,5.184-4.64,8.672-4.64l0,0c5.76,0,10.424,4.664,10.424,10.424V336c0,8.84-7.16,16-16,16h-64v136h168V246.696
	C344,232.16,338.224,218.224,327.952,207.952z"/>
<g>
	<path style="fill:#333333;" d="M312.528,188.392l-21.96-8.776c18.312-11.568,31.632-30.304,35.92-52.28
		C341.032,124.328,352,111.424,352,96s-10.968-28.328-25.512-31.336C319.312,27.872,286.864,0,248,0s-71.312,27.872-78.488,64.664
		C154.968,67.672,144,80.576,144,96s10.968,28.328,25.512,31.336c4.288,21.976,17.608,40.712,35.92,52.28l-21.96,8.776
		c-7.944,3.176-15.04,7.856-21.08,13.904C150.528,214.16,144,229.92,144,246.696V336c0,13.232,10.768,24,24,24v136h184V246.696
		c0-16.776-6.528-32.536-18.384-44.4C327.568,196.248,320.48,191.568,312.528,188.392z M336,96c0,5.896-3.24,11-8,13.776V82.224
		C332.76,85,336,90.104,336,96z M248,16c25.96,0,48.312,15.56,58.344,37.824C295.808,58.144,276.312,64,248,64
		s-47.808-5.856-58.344-10.176C199.688,31.56,222.04,16,248,16z M160,96c0-5.896,3.24-11,8-13.776v27.552
		C163.24,107,160,101.896,160,96z M184,112V80c0-3.68,0.384-7.272,0.984-10.792C197.392,74.128,218.36,80,248,80
		s50.608-5.872,63.016-10.792C311.616,72.728,312,76.32,312,80v32c0,35.288-28.712,64-64,64S184,147.288,184,112z M160,336v-89.304
		c0-12.496,4.864-24.248,13.704-33.088c4.496-4.504,9.784-7.992,15.704-10.36L224,189.416v-1.104c7.584,2.384,15.64,3.688,24,3.688
		c2.688,0,5.336-0.144,7.952-0.4L184,243.928V320h44.28l15.28-22.92c1.192-1.776,4.44-0.8,4.44,1.344V336c0,4.416-3.592,8-8,8h-72
		C163.592,344,160,340.416,160,336z M336,276.368l-61.272,53.608l10.536,12.048L336,297.632V480H184V360h56
		c13.232,0,24-10.768,24-24v-37.576c0-10.16-8.264-18.424-18.424-18.424c-6.168,0-11.904,3.064-15.328,8.2L219.72,304H200v-51.928
		l81.136-59l25.456,10.184c5.92,2.368,11.208,5.848,15.712,10.36c8.832,8.832,13.696,20.576,13.696,33.08V276.368z"/>
	<rect x="272" y="96" style="fill:#333333;" width="16" height="16"/>
	<rect x="208" y="96" style="fill:#333333;" width="16" height="16"/>
	<rect x="232" y="136" style="fill:#333333;" width="32" height="16"/>
</g>
<g>
</g>
<g>
</g>
<g>
</g>
<g>
</g>
<g>
</g>
<g>
</g>
<g>
</g>
<g>
</g>
<g>
</g>
<g>
</g>
<g>
</g>
<g>
</g>
<g>
</g>
<g>
</g>
<g>
</g>
</svg>
