<?xml version="1.0"?>
<svg xmlns="http://www.w3.org/2000/svg" xmlns:xlink="http://www.w3.org/1999/xlink" version="1.1" id="Capa_1" x="0px" y="0px" viewBox="0 0 496 496" style="enable-background:new 0 0 496 496;" xml:space="preserve" width="512px" height="512px"><g><g>
	<g>
		<g>
			<path d="M312.52,188.4l-21.952-8.784c18.312-11.568,31.632-30.304,35.92-52.28C341.032,124.328,352,111.424,352,96     s-10.968-28.328-25.512-31.336C319.312,27.872,286.864,0,248,0s-71.312,27.872-78.488,64.664C154.968,67.672,144,80.576,144,96     s10.968,28.328,25.512,31.336c4.288,21.976,17.608,40.712,35.92,52.28L183.48,188.4c-7.936,3.168-15.032,7.848-21.088,13.904     C150.528,214.16,144,229.92,144,246.696V336c0,13.232,10.768,24,24,24v136h184V246.696c0-16.776-6.528-32.536-18.392-44.4     C327.552,196.24,320.464,191.568,312.52,188.4z M328,82.232c4.76,2.768,8,7.872,8,13.768s-3.24,11-8,13.776V82.232z M168,109.768     c-4.76-2.768-8-7.872-8-13.768s3.24-11,8-13.776V109.768z M248,16c25.96,0,48.312,15.56,58.344,37.824     C295.808,58.144,276.312,64,248,64s-47.808-5.856-58.344-10.176C199.688,31.56,222.04,16,248,16z M184,112V80     c0-3.688,0.384-7.272,0.984-10.792C197.392,74.128,218.36,80,248,80s50.608-5.872,63.016-10.792     C311.616,72.728,312,76.312,312,80v32c0,35.288-28.712,64-64,64C212.712,176,184,147.288,184,112z M160,336v-89.304     c0-12.496,4.864-24.248,13.704-33.08c4.512-4.512,9.8-8,15.712-10.36L224,189.416v-1.104c7.584,2.384,15.64,3.688,24,3.688     c2.688,0,5.336-0.144,7.952-0.4L184,243.928V320h44.28l15.28-22.928c1.2-1.776,4.44-0.8,4.44,1.352V336c0,4.408-3.584,8-8,8h-72     C163.584,344,160,340.408,160,336z M336,276.376l-61.264,53.608l10.528,12.04l50.736-44.4V480H184V360h56     c13.232,0,24-10.768,24-24v-37.576c0-10.16-8.264-18.424-18.424-18.424c-6.176,0-11.904,3.064-15.328,8.2L219.72,304H200v-51.928     l81.128-59.008l25.456,10.184c5.912,2.36,11.192,5.848,15.712,10.352c8.84,8.848,13.704,20.592,13.704,33.096V276.376z" data-original="#000000" class="active-path" data-old_color="#000000" fill="#008000"/>
			<rect x="272" y="96" width="16" height="16" data-original="#000000" class="active-path" data-old_color="#000000" fill="#008000"/>
			<rect x="208" y="96" width="16" height="16" data-original="#000000" class="active-path" data-old_color="#000000" fill="#008000"/>
			<rect x="232" y="136" width="32" height="16" data-original="#000000" class="active-path" data-old_color="#000000" fill="#008000"/>
		</g>
	</g>
</g></g> </svg>
