<?xml version="1.0"?>
<svg xmlns="http://www.w3.org/2000/svg" id="Capa_1" enable-background="new 0 0 512 512" height="512px" viewBox="0 0 512 512" width="512px" class=""><g><g><path d="m243.324 354.236h15v15h-15z" data-original="#000000" class="active-path" data-old_color="#000000" fill="#008000"/><path d="m368.988 177.299v15h19.535l10.522 45h-50.564l-10.522-45h16.028v-15h-164.068l312.305-78.748-18.337-72.724-189.034 47.665 3.667 14.545 15.541-3.919.802 46.206-49.028 12.362-.802-46.206 18.94-4.776-3.667-14.545-164.332 41.437h-44.766v15h39.717l24.248 103.702h-105.173c-8.271 0-15-6.729-15-15v-73.703c0-8.271 6.729-15 15-15h26.208v-15h-26.208c-16.542 0-30 13.458-30 30v73.703c0 16.542 13.458 30 30 30h114.629 9.456 81.996v-15h-19.536l-10.522-45h50.564l10.522 45h-16.028v15h260.919v-75h-143.012zm34.939 15h50.564l10.522 45h-50.564zm-267.823-16.901-10.247-43.825 60.274-15.198.802 46.206zm257.66-64.968-.802-46.207 49.029-12.363.802 46.207zm90.248-22.756-26.282 6.627-.802-46.207 16.082-4.055zm-155.014-7.322 49.029-12.363.802 46.206-49.029 12.363zm-78.1 66.101-49.029 12.363-.802-46.206 49.028-12.362zm-49.757 90.846h-50.564l-10.522-45h50.564zm70.85-45h50.564l10.522 45h-50.564zm225.009 45h-16.583l-10.522-45h27.105z" data-original="#000000" class="active-path" data-old_color="#000000" fill="#008000"/><path d="m474.5 456.173c0 8.271-6.729 15-15 15h-37.5v15h37.5c16.542 0 30-13.458 30-30v-188.874h-15z" data-original="#000000" class="active-path" data-old_color="#000000" fill="#008000"/><path d="m22.5 267.299h15v136.375h-15z" data-original="#000000" class="active-path" data-old_color="#000000" fill="#008000"/><path d="m37.5 456.173v-37.499h-15v37.499c0 16.542 13.458 30 30 30h354.5v-15h-354.5c-8.271 0-15-6.729-15-15z" data-original="#000000" class="active-path" data-old_color="#000000" fill="#008000"/><path d="m275.982 316.95-62.657-37.431v164.434l137.624-82.217-62.089-37.092-7.692 12.877 40.533 24.215-93.376 55.783v-111.567l39.965 23.875z" data-original="#000000" class="active-path" data-old_color="#000000" fill="#008000"/><path d="m444.5 267.299h15v15h-15z" data-original="#000000" class="active-path" data-old_color="#000000" fill="#008000"/><path d="m444.5 297.299h15v45h-15z" data-original="#000000" class="active-path" data-old_color="#000000" fill="#008000"/><path d="m52.5 441.173h15v15h-15z" data-original="#000000" class="active-path" data-old_color="#000000" fill="#008000"/><path d="m82.5 441.173h15v15h-15z" data-original="#000000" class="active-path" data-old_color="#000000" fill="#008000"/><path d="m86.208 148.596h15v15h-15z" data-original="#000000" class="active-path" data-old_color="#000000" fill="#008000"/><path d="m86.208 207.299h15v15h-15z" data-original="#000000" class="active-path" data-old_color="#000000" fill="#008000"/></g></g> </svg>
