<?xml version="1.0"?>
<svg xmlns="http://www.w3.org/2000/svg" id="Capa_1" enable-background="new 0 0 512 512" height="512px" viewBox="0 0 512 512" width="512px"><g><path d="m255.65 341.542c-10.193.187-18.486 8.803-18.486 19.208v14.724c0 5.278 4.294 9.571 9.571 9.571h18.529c5.277 0 9.571-4.293 9.571-9.571v-15.1c.001-10.576-8.672-19.043-19.185-18.832zm4.186 28.504h-7.672v-9.295c0-2.246 1.722-4.174 3.761-4.211 2.069-.061 3.911 1.632 3.911 3.835z" data-original="#000000" class="active-path" data-old_color="#000000" fill="#008000"/><path d="m255.65 392.835c-10.193.187-18.486 8.803-18.486 19.208v14.724c0 5.278 4.294 9.571 9.571 9.571h18.529c5.277 0 9.571-4.293 9.571-9.571v-15.1c.001-10.515-8.608-19.041-19.185-18.832zm4.186 28.504h-7.672v-9.295c0-2.246 1.722-4.174 3.761-4.211 2.05-.066 3.911 1.619 3.911 3.835z" data-original="#000000" class="active-path" data-old_color="#000000" fill="#008000"/><path d="m373.84 341.542c-10.194.187-18.487 8.803-18.487 19.208v14.724c0 5.278 4.294 9.571 9.571 9.571h18.529c5.277 0 9.571-4.293 9.571-9.571v-15.1c0-10.605-8.699-19.043-19.184-18.832zm4.184 28.504h-7.672v-9.295c0-2.246 1.723-4.174 3.762-4.211 2.1-.037 3.91 1.643 3.91 3.835z" data-original="#000000" class="active-path" data-old_color="#000000" fill="#008000"/><path d="m373.84 290.249c-10.194.187-18.487 8.803-18.487 19.208v14.724c0 5.278 4.294 9.572 9.571 9.572h18.529c5.277 0 9.571-4.294 9.571-9.572v-15.1c0-10.573-8.693-19.069-19.184-18.832zm4.184 28.504h-7.672v-9.296c0-2.246 1.723-4.174 3.762-4.211 2.131-.019 3.91 1.659 3.91 3.835z" data-original="#000000" class="active-path" data-old_color="#000000" fill="#008000"/><path d="m373.84 392.835c-10.194.187-18.487 8.803-18.487 19.208v14.724c0 5.278 4.294 9.571 9.571 9.571h18.529c5.277 0 9.571-4.293 9.571-9.571v-15.1c0-10.579-8.693-19.06-19.184-18.832zm4.184 28.504h-7.672v-9.295c0-2.246 1.723-4.174 3.762-4.211 2.137-.014 3.91 1.66 3.91 3.835z" data-original="#000000" class="active-path" data-old_color="#000000" fill="#008000"/><path d="m138.161 341.542c-10.534-.19-19.187 8.265-19.187 18.833v15.1c0 5.278 4.294 9.571 9.571 9.571h18.529c5.277 0 9.571-4.293 9.571-9.571v-14.725c.001-10.405-8.291-19.022-18.484-19.208zm3.485 28.504h-7.672v-9.671c0-2.171 1.777-3.861 3.911-3.835 2.039.038 3.761 1.966 3.761 4.211z" data-original="#000000" class="active-path" data-old_color="#000000" fill="#008000"/><path d="m138.161 290.249c-10.496-.206-19.187 8.243-19.187 18.833v15.1c0 5.278 4.294 9.572 9.571 9.572h18.529c5.277 0 9.571-4.294 9.571-9.572v-14.724c.001-10.406-8.291-19.023-18.484-19.209zm3.485 28.504h-7.672v-9.672c0-2.163 1.765-3.855 3.911-3.835 2.039.038 3.761 1.966 3.761 4.211z" data-original="#000000" class="active-path" data-old_color="#000000" fill="#008000"/><path d="m138.161 392.835c-10.438-.216-19.187 8.195-19.187 18.833v15.1c0 5.278 4.294 9.571 9.571 9.571h18.529c5.277 0 9.571-4.293 9.571-9.571v-14.724c.001-10.406-8.291-19.023-18.484-19.209zm3.485 28.504h-7.672v-9.671c0-2.183 1.794-3.867 3.911-3.835 2.039.038 3.761 1.966 3.761 4.211z" data-original="#000000" class="active-path" data-old_color="#000000" fill="#008000"/><path d="m512 276.076c0-2.7-1.431-5.059-3.571-6.38 0-6.94 0-58.012 0-63.981 4.494-15.517-.051-28.397-12.342-34.603-.012-.006-.022-.011-.034-.017l-2.85-1.42v-4.479c0-4.142-3.357-7.5-7.5-7.5s-7.5 3.358-7.5 7.5v4.49l-2.824 1.426c-12.334 6.227-16.908 19.107-12.422 34.603v63.981c-2.14 1.321-3.571 3.68-3.571 6.38s1.431 5.059 3.571 6.38v41.964c-2.14 1.321-3.571 3.68-3.571 6.38s1.431 5.059 3.571 6.38v41.964c-2.14 1.321-3.571 3.68-3.571 6.38s1.431 5.059 3.571 6.38v60.029h-9.068v-48.909c0-4.142-3.357-7.5-7.5-7.5s-7.5 3.358-7.5 7.5v48.909h-19.107v-146.688h19.107v62.779c0 4.142 3.357 7.5 7.5 7.5s7.5-3.358 7.5-7.5v-64.521c0-7.311-5.947-13.258-13.258-13.258h-20.85v-11.371c0-7.31-5.947-13.257-13.257-13.257h-4.31v-34.41c5.993-20.085.496-36.085-15.197-44.008-.011-.005-.022-.011-.034-.017l-5.281-2.633v-7.645c0-4.142-3.357-7.5-7.5-7.5s-7.5 3.358-7.5 7.5v7.652l-5.235 2.643c-15.513 7.832-21.18 24.228-15.305 44.005v34.413h-2.566v-6.285c0-7.665-5.746-13.998-13.154-14.956 0-22.362 0-35.042 0-45.165 11.547-43.825-7.576-90.202-46.79-113.096-.012-.007-.023-.014-.036-.021l-18.047-10.402c-.667-.384-1.354-.719-2.053-1.016v-22.11c0-4.142-3.357-7.5-7.5-7.5s-7.5 3.358-7.5 7.5v22.126c-.716.307-1.419.654-2.102 1.052l-17.763 10.37c-39.366 22.983-58.611 69.358-47.094 113.095v45.166c-7.408.958-13.154 7.291-13.154 14.956v6.285h-2.566v-34.413c5.876-19.777.21-36.172-15.305-44.005l-5.235-2.643v-7.652c0-4.142-3.357-7.5-7.5-7.5s-7.5 3.358-7.5 7.5v7.645l-5.281 2.633c-.012.006-.023.012-.034.017-15.692 7.923-21.188 23.922-15.197 44.007v34.411h-4.309c-7.311 0-13.258 5.947-13.258 13.257v11.371h-20.85c-7.311 0-13.258 5.947-13.258 13.258v148.431h-9.067v-60.03c2.14-1.321 3.57-3.68 3.57-6.379s-1.431-5.058-3.57-6.379v-41.965c2.14-1.321 3.57-3.68 3.57-6.379s-1.431-5.058-3.57-6.379v-41.965c2.14-1.321 3.57-3.68 3.57-6.379s-1.431-5.058-3.57-6.379c0-6.94 0-58.011 0-63.983 4.485-15.495-.089-28.375-12.421-34.601l-2.825-1.427v-4.49c0-4.142-3.357-7.5-7.5-7.5s-7.5 3.358-7.5 7.5v4.478l-2.851 1.421c-.012.006-.023.012-.034.018-12.29 6.203-16.835 19.084-12.342 34.6v63.982c-2.14 1.321-3.57 3.68-3.57 6.379s1.431 5.058 3.57 6.379v41.965c-2.14 1.321-3.57 3.68-3.57 6.379s1.431 5.058 3.57 6.379v41.965c-2.14 1.321-3.57 3.68-3.57 6.379s1.431 5.058 3.57 6.379v61.15c-2.14 1.321-3.57 3.68-3.57 6.379 0 4.142 3.357 7.5 7.5 7.5h497c4.143 0 7.5-3.358 7.5-7.5 0-2.7-1.431-5.059-3.571-6.38v-61.149c2.14-1.321 3.571-3.68 3.571-6.38s-1.431-5.059-3.571-6.38v-41.964c2.14-1.321 3.571-3.68 3.571-6.38s-1.431-5.059-3.571-6.38v-41.964c2.14-1.318 3.571-3.677 3.571-6.377zm-143.773-75.486 5.978-3.018 6.07 3.026c7.885 3.989 10.787 11.378 8.661 22.003h-29.472c-1.579-8.202-.625-17.271 8.763-22.011zm-7.065 37.012h26.053v28.016h-5.526v-12.523c0-4.142-3.357-7.5-7.5-7.5s-7.5 3.358-7.5 7.5v12.523h-5.526v-28.016zm-45.721-20.091h-118.883v-11.726h118.884v11.726zm-118.883 15h118.884v11.726h-118.884zm39.656-133.442 17.764-10.371c1.261-.737 2.832-.741 4.101-.011l18.027 10.391c32.015 18.701 48.312 55.786 40.928 91.707h-122.066c-7.349-35.848 9.076-72.935 41.246-91.716zm-104.488 101.529 6.069-3.025 5.978 3.018c9.389 4.74 10.343 13.81 8.763 22.012h-29.472c-2.126-10.627.777-18.016 8.662-22.005zm-6.942 37.004h26.053v28.016h-5.526v-12.523c0-4.142-3.357-7.5-7.5-7.5s-7.5 3.358-7.5 7.5v12.523h-5.526v-28.016zm-90.741-8.488h-15.473v-16.93h15.473zm-15.473 15h15.473v24.463h-15.473zm15.473 39.462v39.724h-15.473v-39.724zm0 54.725v39.724h-15.473v-39.724zm-11.388-153.79 3.635-1.812 3.571 1.803c4.623 2.335 6.546 6.59 5.745 12.681h-18.604c-.816-6.101 1.075-10.352 5.653-12.672zm-4.085 267.423v-58.909h15.473v58.909zm54.54-146.689h19.107v146.688h-19.107zm34.108-24.628h61.186v171.316h-61.186c0-6.307 0-163.743 0-171.316zm121.433 171.317v-101.466c0-19.048 10.465-36.286 27.349-45.105 16.883 8.819 27.348 26.057 27.348 45.105v101.466zm69.697 0v-101.466c0-24.873-13.777-47.36-35.955-58.686-4.004-2.045-8.783-2.044-12.785 0-22.179 11.326-35.956 33.813-35.956 58.687v101.466h-7.672v-171.318h32.52c4.143 0 7.5-3.358 7.5-7.5s-3.357-7.5-7.5-7.5h-37.308c-5.632 0-10.213 4.582-10.213 10.213v176.104h-7.576c0-.157-.061-192.697.096-192.697.148 0 145.097-.053 145.097.095v192.602h-7.576v-176.104c0-5.631-4.581-10.213-10.213-10.213h-37.307c-4.143 0-7.5 3.358-7.5 7.5s3.357 7.5 7.5 7.5h32.52v171.316h-7.672zm45.248-171.317h61.186v171.316h-61.186zm134.361 42.684v-39.724h15.472v39.724zm15.472 15v39.724h-15.472v-39.724zm-15.472-69.725v-24.463h15.472v24.463zm15.472-39.462h-15.472v-16.93h15.472zm-11.289-44.611 3.569-1.803 3.633 1.811c4.58 2.32 6.473 6.571 5.656 12.673h-18.604c-.802-6.092 1.12-10.346 5.746-12.681zm-4.183 267.431v-58.909h15.472v58.909z" data-original="#000000" class="active-path" data-old_color="#000000" fill="#008000"/></g> </svg>
